<mxfile host="app.diagrams.net" modified="2020-09-16T22:50:00.463Z" agent="5.0 (Windows NT 10.0; Win64; x64) AppleWebKit/537.36 (KHTML, like Gecko) Chrome/85.0.4183.102 Safari/537.36" etag="liO7JooPPvsq0XHkhOry" version="13.7.2" type="github">
  <diagram id="fVbHFt6jkcbVhx4UNaaO" name="Page-1">
    <mxGraphModel dx="1422" dy="762" grid="1" gridSize="10" guides="1" tooltips="1" connect="1" arrows="1" fold="1" page="1" pageScale="1" pageWidth="826" pageHeight="1169" math="0" shadow="0">
      <root>
        <mxCell id="0" />
        <mxCell id="1" parent="0" />
        <mxCell id="2IwdMngmm1H63klMSNvM-2" value="" style="strokeWidth=1;shadow=0;dashed=0;align=center;html=1;shape=mxgraph.mockup.containers.browserWindow;rSize=0;strokeColor=#666666;strokeColor2=#008cff;strokeColor3=#c4c4c4;mainText=,;recursiveResize=0;" vertex="1" parent="1">
          <mxGeometry x="25" y="340" width="770" height="1540" as="geometry" />
        </mxCell>
        <mxCell id="2IwdMngmm1H63klMSNvM-19" value="" style="rounded=0;whiteSpace=wrap;html=1;fontSize=42;" vertex="1" parent="2IwdMngmm1H63klMSNvM-2">
          <mxGeometry x="45" y="500" width="310" height="500" as="geometry" />
        </mxCell>
        <mxCell id="2IwdMngmm1H63klMSNvM-15" value="" style="rounded=0;whiteSpace=wrap;html=1;" vertex="1" parent="2IwdMngmm1H63klMSNvM-2">
          <mxGeometry x="45" y="250" width="675" height="190" as="geometry" />
        </mxCell>
        <mxCell id="2IwdMngmm1H63klMSNvM-3" value="COVID-19" style="strokeWidth=1;shadow=0;dashed=0;align=center;html=1;shape=mxgraph.mockup.containers.anchor;fontSize=17;fontColor=#666666;align=left;" vertex="1" parent="2IwdMngmm1H63klMSNvM-2">
          <mxGeometry x="60" y="12" width="110" height="26" as="geometry" />
        </mxCell>
        <mxCell id="2IwdMngmm1H63klMSNvM-4" value="https://www.SanAngeloCovidStats.com" style="strokeWidth=1;shadow=0;dashed=0;align=center;html=1;shape=mxgraph.mockup.containers.anchor;rSize=0;fontSize=17;fontColor=#666666;align=left;" vertex="1" parent="2IwdMngmm1H63klMSNvM-2">
          <mxGeometry x="130" y="60" width="250" height="26" as="geometry" />
        </mxCell>
        <mxCell id="2IwdMngmm1H63klMSNvM-11" value="" style="verticalLabelPosition=bottom;shadow=0;dashed=0;align=center;html=1;verticalAlign=top;strokeWidth=1;shape=mxgraph.mockup.graphics.lineChart;strokeColor=none;strokeColor2=#666666;strokeColor3=#008cff;strokeColor4=#dddddd;" vertex="1" parent="2IwdMngmm1H63klMSNvM-2">
          <mxGeometry x="80" y="280" width="140" height="100" as="geometry" />
        </mxCell>
        <mxCell id="2IwdMngmm1H63klMSNvM-14" value="&lt;h2&gt;&lt;font style=&quot;font-size: 31px&quot; color=&quot;#808080&quot;&gt;San Angelo COVID-19 Statistics&lt;/font&gt;&lt;/h2&gt;" style="rounded=0;whiteSpace=wrap;html=1;labelBorderColor=#FFFFFF;" vertex="1" parent="2IwdMngmm1H63klMSNvM-2">
          <mxGeometry x="40" y="130" width="680" height="80" as="geometry" />
        </mxCell>
        <mxCell id="2IwdMngmm1H63klMSNvM-16" value="&lt;font style=&quot;font-size: 26px&quot;&gt;Current Active Cases&lt;/font&gt;" style="text;html=1;strokeColor=none;fillColor=none;align=center;verticalAlign=middle;whiteSpace=wrap;rounded=0;" vertex="1" parent="2IwdMngmm1H63klMSNvM-2">
          <mxGeometry x="340" y="230" width="270" height="120" as="geometry" />
        </mxCell>
        <mxCell id="2IwdMngmm1H63klMSNvM-17" value="&lt;font style=&quot;font-size: 42px;&quot;&gt;3,499&lt;/font&gt;" style="text;html=1;strokeColor=none;fillColor=none;align=center;verticalAlign=middle;whiteSpace=wrap;rounded=0;fontSize=42;" vertex="1" parent="2IwdMngmm1H63klMSNvM-2">
          <mxGeometry x="350" y="290" width="250" height="120" as="geometry" />
        </mxCell>
        <mxCell id="2IwdMngmm1H63klMSNvM-21" value="Enter Info" style="rounded=1;whiteSpace=wrap;html=1;fontSize=42;" vertex="1" parent="2IwdMngmm1H63klMSNvM-2">
          <mxGeometry x="90" y="520" width="220" height="60" as="geometry" />
        </mxCell>
        <mxCell id="2IwdMngmm1H63klMSNvM-30" value="" style="strokeWidth=1;shadow=0;dashed=0;align=center;html=1;shape=mxgraph.mockup.forms.rrect;rSize=0;strokeColor=#999999;fillColor=#ffffff;recursiveResize=0;fontSize=42;" vertex="1" parent="2IwdMngmm1H63klMSNvM-2">
          <mxGeometry x="115" y="830" width="170" height="160" as="geometry" />
        </mxCell>
        <mxCell id="2IwdMngmm1H63klMSNvM-31" value="White" style="strokeWidth=1;shadow=0;dashed=0;align=center;html=1;shape=mxgraph.mockup.forms.rrect;rSize=0;fillColor=#eeeeee;strokeColor=#999999;gradientColor=#cccccc;align=left;spacingLeft=4;fontSize=17;fontColor=#666666;labelPosition=right;" vertex="1" parent="2IwdMngmm1H63klMSNvM-30">
          <mxGeometry x="8" y="7.5" width="15" height="15" as="geometry" />
        </mxCell>
        <mxCell id="2IwdMngmm1H63klMSNvM-32" value="African American" style="strokeWidth=1;shadow=0;dashed=0;align=center;html=1;shape=mxgraph.mockup.forms.rrect;rSize=0;fillColor=#eeeeee;strokeColor=#999999;gradientColor=#cccccc;align=left;spacingLeft=4;fontSize=17;fontColor=#666666;labelPosition=right;" vertex="1" parent="2IwdMngmm1H63klMSNvM-30">
          <mxGeometry x="8" y="37.5" width="15" height="15" as="geometry" />
        </mxCell>
        <mxCell id="2IwdMngmm1H63klMSNvM-33" value="Asian" style="strokeWidth=1;shadow=0;dashed=0;align=center;html=1;shape=mxgraph.mockup.forms.checkbox;rSize=0;resizable=0;fillColor=#aaaaaa;strokeColor=#444444;gradientColor=#666666;align=left;spacingLeft=4;fontSize=17;fontColor=#008cff;labelPosition=right;" vertex="1" parent="2IwdMngmm1H63klMSNvM-30">
          <mxGeometry x="8" y="67.5" width="15" height="15" as="geometry" />
        </mxCell>
        <mxCell id="2IwdMngmm1H63klMSNvM-34" value="American Indian" style="strokeWidth=1;shadow=0;dashed=0;align=center;html=1;shape=mxgraph.mockup.forms.rrect;rSize=0;fillColor=#eeeeee;strokeColor=#999999;gradientColor=#cccccc;align=left;spacingLeft=4;fontSize=17;fontColor=#666666;labelPosition=right;" vertex="1" parent="2IwdMngmm1H63klMSNvM-30">
          <mxGeometry x="8" y="97.5" width="15" height="15" as="geometry" />
        </mxCell>
        <mxCell id="2IwdMngmm1H63klMSNvM-37" value="etc...." style="strokeWidth=1;shadow=0;dashed=0;align=center;html=1;shape=mxgraph.mockup.forms.rrect;rSize=0;fillColor=#eeeeee;strokeColor=#999999;gradientColor=#cccccc;align=left;spacingLeft=4;fontSize=17;fontColor=#666666;labelPosition=right;" vertex="1" parent="2IwdMngmm1H63klMSNvM-30">
          <mxGeometry x="8" y="130" width="15" height="15" as="geometry" />
        </mxCell>
        <mxCell id="2IwdMngmm1H63klMSNvM-38" value="" style="rounded=0;whiteSpace=wrap;html=1;fontSize=42;" vertex="1" parent="2IwdMngmm1H63klMSNvM-2">
          <mxGeometry x="370" y="500" width="350" height="1010" as="geometry" />
        </mxCell>
        <mxCell id="2IwdMngmm1H63klMSNvM-25" value="" style="strokeWidth=1;shadow=0;dashed=0;align=center;html=1;shape=mxgraph.mockup.forms.rrect;rSize=0;strokeColor=#999999;fillColor=#ffffff;recursiveResize=0;fontSize=42;" vertex="1" parent="2IwdMngmm1H63klMSNvM-2">
          <mxGeometry x="227.5" y="650" width="100" height="140" as="geometry" />
        </mxCell>
        <mxCell id="2IwdMngmm1H63klMSNvM-26" value="Male" style="strokeWidth=1;shadow=0;dashed=0;align=center;html=1;shape=mxgraph.mockup.forms.rrect;rSize=0;fillColor=#eeeeee;strokeColor=#999999;gradientColor=#cccccc;align=left;spacingLeft=4;fontSize=17;fontColor=#666666;labelPosition=right;" vertex="1" parent="2IwdMngmm1H63klMSNvM-25">
          <mxGeometry x="8" y="7.5" width="15" height="15" as="geometry" />
        </mxCell>
        <mxCell id="2IwdMngmm1H63klMSNvM-27" value="Female" style="strokeWidth=1;shadow=0;dashed=0;align=center;html=1;shape=mxgraph.mockup.forms.rrect;rSize=0;fillColor=#eeeeee;strokeColor=#999999;gradientColor=#cccccc;align=left;spacingLeft=4;fontSize=17;fontColor=#666666;labelPosition=right;" vertex="1" parent="2IwdMngmm1H63klMSNvM-25">
          <mxGeometry x="8" y="37.5" width="15" height="15" as="geometry" />
        </mxCell>
        <mxCell id="2IwdMngmm1H63klMSNvM-39" value="" style="strokeWidth=1;shadow=0;dashed=0;align=center;html=1;shape=mxgraph.mockup.forms.rrect;rSize=0;strokeColor=#999999;fillColor=#ffffff;recursiveResize=0;" vertex="1" parent="2IwdMngmm1H63klMSNvM-25">
          <mxGeometry x="-155" width="100" height="140" as="geometry" />
        </mxCell>
        <mxCell id="2IwdMngmm1H63klMSNvM-40" value="0-10&amp;nbsp;" style="strokeWidth=1;shadow=0;dashed=0;align=center;html=1;shape=mxgraph.mockup.forms.rrect;rSize=0;fillColor=#eeeeee;strokeColor=#999999;gradientColor=#cccccc;align=left;spacingLeft=4;fontSize=17;fontColor=#666666;labelPosition=right;" vertex="1" parent="2IwdMngmm1H63klMSNvM-39">
          <mxGeometry x="8" y="7.5" width="15" height="15" as="geometry" />
        </mxCell>
        <mxCell id="2IwdMngmm1H63klMSNvM-41" value="11-20" style="strokeWidth=1;shadow=0;dashed=0;align=center;html=1;shape=mxgraph.mockup.forms.rrect;rSize=0;fillColor=#eeeeee;strokeColor=#999999;gradientColor=#cccccc;align=left;spacingLeft=4;fontSize=17;fontColor=#666666;labelPosition=right;" vertex="1" parent="2IwdMngmm1H63klMSNvM-39">
          <mxGeometry x="8" y="37.5" width="15" height="15" as="geometry" />
        </mxCell>
        <mxCell id="2IwdMngmm1H63klMSNvM-42" value="21-30" style="strokeWidth=1;shadow=0;dashed=0;align=center;html=1;shape=mxgraph.mockup.forms.checkbox;rSize=0;resizable=0;fillColor=#aaaaaa;strokeColor=#444444;gradientColor=#666666;align=left;spacingLeft=4;fontSize=17;fontColor=#008cff;labelPosition=right;" vertex="1" parent="2IwdMngmm1H63klMSNvM-39">
          <mxGeometry x="8" y="67.5" width="15" height="15" as="geometry" />
        </mxCell>
        <mxCell id="2IwdMngmm1H63klMSNvM-43" value="etc...." style="strokeWidth=1;shadow=0;dashed=0;align=center;html=1;shape=mxgraph.mockup.forms.rrect;rSize=0;fillColor=#eeeeee;strokeColor=#999999;gradientColor=#cccccc;align=left;spacingLeft=4;fontSize=17;fontColor=#666666;labelPosition=right;" vertex="1" parent="2IwdMngmm1H63klMSNvM-39">
          <mxGeometry x="8" y="97.5" width="15" height="15" as="geometry" />
        </mxCell>
        <mxCell id="2IwdMngmm1H63klMSNvM-44" value="&lt;font style=&quot;font-size: 23px&quot;&gt;Age&lt;/font&gt;" style="text;html=1;strokeColor=none;fillColor=none;align=center;verticalAlign=middle;whiteSpace=wrap;rounded=0;fontSize=42;" vertex="1" parent="2IwdMngmm1H63klMSNvM-25">
          <mxGeometry x="-125" y="-40" width="40" height="20" as="geometry" />
        </mxCell>
        <mxCell id="2IwdMngmm1H63klMSNvM-45" value="&lt;span style=&quot;font-size: 23px&quot;&gt;Gender&lt;/span&gt;" style="text;html=1;strokeColor=none;fillColor=none;align=center;verticalAlign=middle;whiteSpace=wrap;rounded=0;fontSize=42;" vertex="1" parent="2IwdMngmm1H63klMSNvM-25">
          <mxGeometry x="30" y="-40" width="40" height="20" as="geometry" />
        </mxCell>
        <mxCell id="2IwdMngmm1H63klMSNvM-62" value="Race" style="text;strokeColor=none;fillColor=none;html=1;fontSize=24;fontStyle=0;verticalAlign=middle;align=center;" vertex="1" parent="2IwdMngmm1H63klMSNvM-2">
          <mxGeometry x="150" y="790" width="100" height="40" as="geometry" />
        </mxCell>
        <mxCell id="2IwdMngmm1H63klMSNvM-63" value="" style="verticalLabelPosition=bottom;shadow=0;dashed=0;align=center;html=1;verticalAlign=top;strokeWidth=1;shape=mxgraph.mockup.graphics.pieChart;strokeColor=#008cff;parts=10,20,35;partColors=#e0e0e0,#d0d0d0,#c0c0c0,#b0b0b0,#a0a0a0;strokeWidth=2;fontSize=42;" vertex="1" parent="2IwdMngmm1H63klMSNvM-2">
          <mxGeometry x="416.25" y="710" width="257.5" height="250" as="geometry" />
        </mxCell>
        <mxCell id="2IwdMngmm1H63klMSNvM-64" value="" style="verticalLabelPosition=bottom;shadow=0;dashed=0;align=center;html=1;verticalAlign=top;strokeWidth=1;shape=mxgraph.mockup.graphics.lineChart;strokeColor=none;strokeColor2=#666666;strokeColor3=#008cff;strokeColor4=#dddddd;fontSize=42;" vertex="1" parent="2IwdMngmm1H63klMSNvM-2">
          <mxGeometry x="395" y="1060" width="300" height="250" as="geometry" />
        </mxCell>
        <mxCell id="2IwdMngmm1H63klMSNvM-65" value="" style="rounded=0;whiteSpace=wrap;html=1;fontSize=42;" vertex="1" parent="2IwdMngmm1H63klMSNvM-2">
          <mxGeometry x="45" y="1010" width="310" height="500" as="geometry" />
        </mxCell>
        <mxCell id="2IwdMngmm1H63klMSNvM-66" value="Sign Up With Email" style="rounded=1;whiteSpace=wrap;html=1;fontSize=42;" vertex="1" parent="2IwdMngmm1H63klMSNvM-2">
          <mxGeometry x="80" y="1030" width="240" height="90" as="geometry" />
        </mxCell>
        <mxCell id="2IwdMngmm1H63klMSNvM-73" value="example@gmail.com" style="html=1;shadow=0;dashed=0;shape=mxgraph.bootstrap.rrect;rSize=5;strokeColor=#CED4DA;strokeWidth=1;fillColor=#E9ECEF;fontColor=#505050;whiteSpace=wrap;align=left;verticalAlign=middle;spacingLeft=10;fontSize=14;" vertex="1" parent="2IwdMngmm1H63klMSNvM-2">
          <mxGeometry x="75" y="1150" width="235" height="30" as="geometry" />
        </mxCell>
        <mxCell id="2IwdMngmm1H63klMSNvM-74" value="&lt;font style=&quot;font-size: 13px&quot;&gt;Enter&lt;/font&gt;" style="strokeWidth=1;shadow=0;dashed=0;align=center;html=1;shape=mxgraph.mockup.buttons.button;strokeColor=#666666;fontColor=#ffffff;mainText=;buttonStyle=round;fontSize=17;fontStyle=1;fillColor=#008cff;whiteSpace=wrap;" vertex="1" parent="2IwdMngmm1H63klMSNvM-2">
          <mxGeometry x="250" y="1190" width="52.5" height="20" as="geometry" />
        </mxCell>
        <mxCell id="2IwdMngmm1H63klMSNvM-75" value="&lt;font style=&quot;font-size: 35px&quot;&gt;Sign up to keep up to date with San Angelo COVID-19 Cases&amp;nbsp;&lt;/font&gt;" style="text;html=1;strokeColor=none;fillColor=none;align=center;verticalAlign=middle;whiteSpace=wrap;rounded=0;fontSize=42;" vertex="1" parent="2IwdMngmm1H63klMSNvM-2">
          <mxGeometry x="60" y="1260" width="280" height="183.5" as="geometry" />
        </mxCell>
        <mxCell id="2IwdMngmm1H63klMSNvM-76" value="User Demographics" style="text;html=1;strokeColor=none;fillColor=none;align=center;verticalAlign=middle;whiteSpace=wrap;rounded=0;fontSize=42;" vertex="1" parent="2IwdMngmm1H63klMSNvM-2">
          <mxGeometry x="447.5" y="480" width="195" height="160" as="geometry" />
        </mxCell>
        <mxCell id="2IwdMngmm1H63klMSNvM-5" value="&lt;h1&gt;&lt;font style=&quot;font-size: 27px&quot; color=&quot;#808080&quot;&gt;San Angelo COVID-19 Statistics&amp;nbsp;&lt;/font&gt;&lt;/h1&gt;" style="strokeWidth=1;shadow=0;dashed=0;align=center;html=1;shape=mxgraph.mockup.text.textBox;fontColor=#666666;align=left;fontSize=17;spacingLeft=4;spacingTop=-3;strokeColor=#666666;mainText=" vertex="1" parent="1">
          <mxGeometry x="190" y="80" width="440" height="60" as="geometry" />
        </mxCell>
      </root>
    </mxGraphModel>
  </diagram>
</mxfile>
